<svg xmlns="http://www.w3.org/2000/svg" viewBox="0 0 64 64">
  <defs>
    <linearGradient id="g" x1="0" y1="0" x2="1" y2="1">
      <stop offset="0%" stop-color="#fbe28a"/>
      <stop offset="55%" stop-color="#e0b94a"/>
      <stop offset="100%" stop-color="#8a6913"/>
    </linearGradient>
    <linearGradient id="l" x1="0" y1="0" x2="0" y2="1">
      <stop offset="0%" stop-color="#bdf25b"/>
      <stop offset="100%" stop-color="#6aa823"/>
    </linearGradient>
  </defs>
  <!-- Dark background tile -->
  <rect width="64" height="64" rx="14" fill="#07120c"/>
  <!-- Gold ring -->
  <circle cx="32" cy="32" r="26" fill="none" stroke="url(#g)" stroke-width="2.5"/>
  <!-- M -->
  <path d="M14 46 V22 L24 36 L34 22 V46"
        fill="none" stroke="url(#g)" stroke-width="4.5"
        stroke-linecap="round" stroke-linejoin="round"/>
  <!-- P -->
  <path d="M38 46 V22 H47 a6 6 0 0 1 0 12 H38"
        fill="none" stroke="url(#g)" stroke-width="4.5"
        stroke-linecap="round" stroke-linejoin="round"/>
  <!-- Leaves on top -->
  <path d="M24 24 C19 16 19 12 24 9 C29 12 29 16 24 24 Z" fill="url(#l)"/>
  <path d="M24 24 C29 18 36 16 41 18 C38 24 31 26 24 24 Z" fill="url(#l)" opacity="0.92"/>
</svg>
